<mxfile host="drawio-plugin" modified="2023-06-14T05:27:07.324Z" agent="5.0 (Windows NT 6.2; Win64; x64) AppleWebKit/537.36 (KHTML, like Gecko) Chrome/104.0.5112.102 Safari/537.36" etag="vYkFewMMPsbn7TwKcOCW" version="20.5.3" type="embed" pages="2"><diagram id="23iRSUPoRavnBvh4doch" name="Page-1"><mxGraphModel dx="2279" dy="821" grid="1" gridSize="10" guides="1" tooltips="1" connect="1" arrows="1" fold="1" page="1" pageScale="1" pageWidth="827" pageHeight="1169" math="0" shadow="0"><root><mxCell id="0"/><mxCell id="1" parent="0"/><mxCell id="27" style="edgeStyle=orthogonalEdgeStyle;rounded=0;orthogonalLoop=1;jettySize=auto;html=1;exitX=0.5;exitY=0;exitDx=0;exitDy=0;entryX=0.5;entryY=1;entryDx=0;entryDy=0;fontSize=20;" edge="1" parent="1" source="2" target="4"><mxGeometry relative="1" as="geometry"/></mxCell><mxCell id="28" style="edgeStyle=orthogonalEdgeStyle;rounded=0;orthogonalLoop=1;jettySize=auto;html=1;exitX=0.5;exitY=0;exitDx=0;exitDy=0;fontSize=20;" edge="1" parent="1" source="2" target="6"><mxGeometry relative="1" as="geometry"/></mxCell><mxCell id="29" style="edgeStyle=orthogonalEdgeStyle;rounded=0;orthogonalLoop=1;jettySize=auto;html=1;exitX=0.5;exitY=0;exitDx=0;exitDy=0;entryX=0.5;entryY=1;entryDx=0;entryDy=0;fontSize=20;" edge="1" parent="1" source="2" target="7"><mxGeometry relative="1" as="geometry"/></mxCell><mxCell id="30" style="edgeStyle=orthogonalEdgeStyle;rounded=0;orthogonalLoop=1;jettySize=auto;html=1;exitX=0.5;exitY=0;exitDx=0;exitDy=0;entryX=0.5;entryY=1;entryDx=0;entryDy=0;fontSize=20;" edge="1" parent="1" source="2" target="3"><mxGeometry relative="1" as="geometry"/></mxCell><mxCell id="31" style="edgeStyle=orthogonalEdgeStyle;rounded=0;orthogonalLoop=1;jettySize=auto;html=1;exitX=0.5;exitY=0;exitDx=0;exitDy=0;entryX=0.5;entryY=1;entryDx=0;entryDy=0;fontSize=20;" edge="1" parent="1" source="2" target="5"><mxGeometry relative="1" as="geometry"/></mxCell><mxCell id="32" style="edgeStyle=orthogonalEdgeStyle;rounded=0;orthogonalLoop=1;jettySize=auto;html=1;exitX=0.5;exitY=0;exitDx=0;exitDy=0;entryX=0.5;entryY=1;entryDx=0;entryDy=0;fontSize=20;" edge="1" parent="1" source="2" target="8"><mxGeometry relative="1" as="geometry"/></mxCell><mxCell id="44" style="edgeStyle=orthogonalEdgeStyle;rounded=0;orthogonalLoop=1;jettySize=auto;html=1;exitX=0.5;exitY=1;exitDx=0;exitDy=0;entryX=0.5;entryY=0;entryDx=0;entryDy=0;fontSize=20;endArrow=none;endFill=0;startArrow=none;" edge="1" parent="1" source="52" target="38"><mxGeometry relative="1" as="geometry"/></mxCell><mxCell id="2" value="用户" style="rounded=1;whiteSpace=wrap;html=1;fontSize=20;" vertex="1" parent="1"><mxGeometry x="-230" y="150" width="120" height="60" as="geometry"/></mxCell><mxCell id="3" value="手机号" style="ellipse;whiteSpace=wrap;html=1;fontSize=20;" vertex="1" parent="1"><mxGeometry x="-140" y="20" width="120" height="60" as="geometry"/></mxCell><mxCell id="4" value="&lt;u style=&quot;font-size: 20px;&quot;&gt;用户id&lt;/u&gt;" style="ellipse;whiteSpace=wrap;html=1;fontSize=20;" vertex="1" parent="1"><mxGeometry x="-560" y="20" width="120" height="60" as="geometry"/></mxCell><mxCell id="5" value="邮箱" style="ellipse;whiteSpace=wrap;html=1;fontSize=20;" vertex="1" parent="1"><mxGeometry y="20" width="120" height="60" as="geometry"/></mxCell><mxCell id="6" value="用户名" style="ellipse;whiteSpace=wrap;html=1;fontSize=20;" vertex="1" parent="1"><mxGeometry x="-420" y="20" width="120" height="60" as="geometry"/></mxCell><mxCell id="7" value="密码" style="ellipse;whiteSpace=wrap;html=1;fontSize=20;" vertex="1" parent="1"><mxGeometry x="-280" y="20" width="120" height="60" as="geometry"/></mxCell><mxCell id="8" value="权限" style="ellipse;whiteSpace=wrap;html=1;fontSize=20;" vertex="1" parent="1"><mxGeometry x="140" y="20" width="120" height="60" as="geometry"/></mxCell><mxCell id="18" style="edgeStyle=orthogonalEdgeStyle;rounded=0;orthogonalLoop=1;jettySize=auto;html=1;exitX=0.5;exitY=1;exitDx=0;exitDy=0;entryX=0.5;entryY=0;entryDx=0;entryDy=0;fontSize=20;" edge="1" parent="1" source="9" target="13"><mxGeometry relative="1" as="geometry"/></mxCell><mxCell id="19" style="edgeStyle=orthogonalEdgeStyle;rounded=0;orthogonalLoop=1;jettySize=auto;html=1;exitX=0.5;exitY=1;exitDx=0;exitDy=0;entryX=0.5;entryY=0;entryDx=0;entryDy=0;fontSize=20;" edge="1" parent="1" source="9" target="14"><mxGeometry relative="1" as="geometry"/></mxCell><mxCell id="22" style="edgeStyle=orthogonalEdgeStyle;rounded=0;orthogonalLoop=1;jettySize=auto;html=1;exitX=0.5;exitY=1;exitDx=0;exitDy=0;fontSize=20;" edge="1" parent="1" source="9" target="15"><mxGeometry relative="1" as="geometry"/></mxCell><mxCell id="23" style="edgeStyle=orthogonalEdgeStyle;rounded=0;orthogonalLoop=1;jettySize=auto;html=1;exitX=0.5;exitY=1;exitDx=0;exitDy=0;fontSize=20;" edge="1" parent="1" source="9" target="16"><mxGeometry relative="1" as="geometry"/></mxCell><mxCell id="24" style="edgeStyle=orthogonalEdgeStyle;rounded=0;orthogonalLoop=1;jettySize=auto;html=1;exitX=0.5;exitY=1;exitDx=0;exitDy=0;entryX=0.5;entryY=0;entryDx=0;entryDy=0;fontSize=20;" edge="1" parent="1" source="9"><mxGeometry relative="1" as="geometry"><mxPoint x="110" y="580" as="targetPoint"/></mxGeometry></mxCell><mxCell id="43" style="edgeStyle=orthogonalEdgeStyle;rounded=0;orthogonalLoop=1;jettySize=auto;html=1;exitX=0.5;exitY=0;exitDx=0;exitDy=0;entryX=0.5;entryY=1;entryDx=0;entryDy=0;fontSize=20;endArrow=none;endFill=0;startArrow=none;" edge="1" parent="1" source="54" target="38"><mxGeometry relative="1" as="geometry"/></mxCell><mxCell id="9" value="题目" style="rounded=1;whiteSpace=wrap;html=1;fontSize=20;" vertex="1" parent="1"><mxGeometry x="-230" y="465" width="120" height="60" as="geometry"/></mxCell><mxCell id="25" style="edgeStyle=orthogonalEdgeStyle;rounded=0;orthogonalLoop=1;jettySize=auto;html=1;exitX=0.5;exitY=1;exitDx=0;exitDy=0;fontSize=20;" edge="1" parent="1" source="10" target="11"><mxGeometry relative="1" as="geometry"/></mxCell><mxCell id="26" style="edgeStyle=orthogonalEdgeStyle;rounded=0;orthogonalLoop=1;jettySize=auto;html=1;exitX=0.5;exitY=1;exitDx=0;exitDy=0;fontSize=20;" edge="1" parent="1" source="10" target="12"><mxGeometry relative="1" as="geometry"/></mxCell><mxCell id="34" style="edgeStyle=orthogonalEdgeStyle;rounded=0;orthogonalLoop=1;jettySize=auto;html=1;exitX=0;exitY=0.5;exitDx=0;exitDy=0;entryX=1;entryY=0.5;entryDx=0;entryDy=0;fontSize=20;endArrow=none;endFill=0;" edge="1" parent="1" source="10" target="33"><mxGeometry relative="1" as="geometry"/></mxCell><mxCell id="36" value="1" style="edgeLabel;html=1;align=center;verticalAlign=middle;resizable=0;points=[];fontSize=20;" vertex="1" connectable="0" parent="34"><mxGeometry x="-0.161" y="-3" relative="1" as="geometry"><mxPoint x="-11" y="3" as="offset"/></mxGeometry></mxCell><mxCell id="10" value="&lt;u style=&quot;font-size: 20px;&quot;&gt;题库&lt;/u&gt;" style="rounded=1;whiteSpace=wrap;html=1;fontSize=20;" vertex="1" parent="1"><mxGeometry x="420" y="465" width="120" height="60" as="geometry"/></mxCell><mxCell id="11" value="&lt;u&gt;题库id&lt;/u&gt;" style="ellipse;whiteSpace=wrap;html=1;fontSize=20;" vertex="1" parent="1"><mxGeometry x="340" y="595" width="120" height="60" as="geometry"/></mxCell><mxCell id="12" value="题库名称" style="ellipse;whiteSpace=wrap;html=1;fontSize=20;" vertex="1" parent="1"><mxGeometry x="500" y="595" width="120" height="60" as="geometry"/></mxCell><mxCell id="13" value="&lt;u style=&quot;font-size: 20px;&quot;&gt;题目id&lt;/u&gt;" style="ellipse;whiteSpace=wrap;html=1;fontSize=20;" vertex="1" parent="1"><mxGeometry x="-520" y="580" width="120" height="60" as="geometry"/></mxCell><mxCell id="14" value="题目文本" style="ellipse;whiteSpace=wrap;html=1;fontSize=20;" vertex="1" parent="1"><mxGeometry x="-370" y="580" width="120" height="60" as="geometry"/></mxCell><mxCell id="15" value="选项" style="ellipse;whiteSpace=wrap;html=1;fontSize=20;" vertex="1" parent="1"><mxGeometry x="-230" y="580" width="120" height="60" as="geometry"/></mxCell><mxCell id="16" value="答案" style="ellipse;whiteSpace=wrap;html=1;fontSize=20;" vertex="1" parent="1"><mxGeometry x="-90" y="580" width="120" height="60" as="geometry"/></mxCell><mxCell id="17" value="题目类型" style="ellipse;whiteSpace=wrap;html=1;fontSize=20;" vertex="1" parent="1"><mxGeometry x="60" y="580" width="120" height="60" as="geometry"/></mxCell><mxCell id="35" style="edgeStyle=orthogonalEdgeStyle;rounded=0;orthogonalLoop=1;jettySize=auto;html=1;exitX=0;exitY=0.5;exitDx=0;exitDy=0;entryX=1;entryY=0.5;entryDx=0;entryDy=0;fontSize=20;endArrow=none;endFill=0;" edge="1" parent="1" source="33" target="9"><mxGeometry relative="1" as="geometry"/></mxCell><mxCell id="37" value="n" style="edgeLabel;html=1;align=center;verticalAlign=middle;resizable=0;points=[];fontSize=20;" vertex="1" connectable="0" parent="35"><mxGeometry x="-0.2862" y="-2" relative="1" as="geometry"><mxPoint x="-51" y="2" as="offset"/></mxGeometry></mxCell><mxCell id="33" value="分类" style="rhombus;whiteSpace=wrap;html=1;fontSize=20;" vertex="1" parent="1"><mxGeometry x="200" y="405" width="86" height="180" as="geometry"/></mxCell><mxCell id="49" style="edgeStyle=orthogonalEdgeStyle;rounded=0;orthogonalLoop=1;jettySize=auto;html=1;exitX=0;exitY=0.5;exitDx=0;exitDy=0;entryX=1;entryY=0.5;entryDx=0;entryDy=0;fontSize=20;endArrow=none;endFill=0;" edge="1" parent="1" source="38" target="47"><mxGeometry relative="1" as="geometry"/></mxCell><mxCell id="50" style="edgeStyle=orthogonalEdgeStyle;rounded=0;orthogonalLoop=1;jettySize=auto;html=1;exitX=0;exitY=0.5;exitDx=0;exitDy=0;fontSize=20;endArrow=none;endFill=0;" edge="1" parent="1" source="38" target="46"><mxGeometry relative="1" as="geometry"/></mxCell><mxCell id="51" style="edgeStyle=orthogonalEdgeStyle;rounded=0;orthogonalLoop=1;jettySize=auto;html=1;exitX=0;exitY=0.5;exitDx=0;exitDy=0;entryX=1;entryY=0.5;entryDx=0;entryDy=0;fontSize=20;endArrow=none;endFill=0;" edge="1" parent="1" source="38" target="48"><mxGeometry relative="1" as="geometry"/></mxCell><mxCell id="38" value="答题记录" style="rhombus;whiteSpace=wrap;html=1;fontSize=20;" vertex="1" parent="1"><mxGeometry x="-300" y="300" width="260" height="80" as="geometry"/></mxCell><mxCell id="46" value="正确数" style="ellipse;whiteSpace=wrap;html=1;fontSize=20;" vertex="1" parent="1"><mxGeometry x="-560" y="310" width="120" height="60" as="geometry"/></mxCell><mxCell id="47" value="错误数" style="ellipse;whiteSpace=wrap;html=1;fontSize=20;" vertex="1" parent="1"><mxGeometry x="-560" y="230" width="120" height="60" as="geometry"/></mxCell><mxCell id="48" value="答题时间" style="ellipse;whiteSpace=wrap;html=1;fontSize=20;" vertex="1" parent="1"><mxGeometry x="-560" y="390" width="120" height="80" as="geometry"/></mxCell><mxCell id="54" value="n" style="text;html=1;align=center;verticalAlign=middle;resizable=0;points=[];autosize=1;strokeColor=none;fillColor=none;fontSize=20;" vertex="1" parent="1"><mxGeometry x="-185" y="404" width="30" height="40" as="geometry"/></mxCell><mxCell id="55" value="" style="edgeStyle=orthogonalEdgeStyle;rounded=0;orthogonalLoop=1;jettySize=auto;html=1;exitX=0.5;exitY=0;exitDx=0;exitDy=0;entryX=0.5;entryY=1;entryDx=0;entryDy=0;fontSize=20;endArrow=none;endFill=0;" edge="1" parent="1" source="9" target="54"><mxGeometry relative="1" as="geometry"><mxPoint x="-170" y="465" as="sourcePoint"/><mxPoint x="-170" y="380" as="targetPoint"/></mxGeometry></mxCell><mxCell id="52" value="n" style="text;html=1;align=center;verticalAlign=middle;resizable=0;points=[];autosize=1;strokeColor=none;fillColor=none;fontSize=20;" vertex="1" parent="1"><mxGeometry x="-185" y="240" width="30" height="40" as="geometry"/></mxCell><mxCell id="56" value="" style="edgeStyle=orthogonalEdgeStyle;rounded=0;orthogonalLoop=1;jettySize=auto;html=1;exitX=0.5;exitY=1;exitDx=0;exitDy=0;entryX=0.5;entryY=0;entryDx=0;entryDy=0;fontSize=20;endArrow=none;endFill=0;" edge="1" parent="1" source="2" target="52"><mxGeometry relative="1" as="geometry"><mxPoint x="-170" y="210" as="sourcePoint"/><mxPoint x="-170" y="300" as="targetPoint"/></mxGeometry></mxCell><mxCell id="YRerNxX0ZYfhlCzETL3g-56" value="用户：&lt;u&gt;用户id&lt;/u&gt;、用户名、用户密码、手机号、邮箱、权限&lt;br&gt;题目：&lt;u&gt;题目id&lt;/u&gt;、题目文本、选项、答案、题目类型&lt;br&gt;答题记录：&lt;u&gt;用户id&lt;/u&gt;、&lt;u&gt;题目id&lt;/u&gt;、正确数、错误数、答题时间&lt;br&gt;题库：&lt;u&gt;题库id&lt;/u&gt;、题目名称" style="text;whiteSpace=wrap;html=1;fontSize=24;fillColor=#E6DFD4;strokeColor=#0e8088;fontColor=#000000;" vertex="1" parent="1"><mxGeometry x="50" y="190" width="630" height="170" as="geometry"/></mxCell></root></mxGraphModel></diagram><diagram id="zSmUBs0eq8xBeVif8ycn" name="Page-2"><mxGraphModel dx="1100" dy="780" grid="1" gridSize="10" guides="1" tooltips="1" connect="1" arrows="1" fold="1" page="1" pageScale="1" pageWidth="850" pageHeight="1100" math="0" shadow="0"><root><mxCell id="0"/><mxCell id="1" parent="0"/></root></mxGraphModel></diagram></mxfile>